<svg width="170" height="130" viewBox="0 0 170 130" fill="none" xmlns="http://www.w3.org/2000/svg">
<g filter="url(#filter0_d)">
<g clip-path="url(#clip0)">
<rect x="5" y="5" width="160" height="120" rx="20.4682" fill="#2B2D31"/>
<circle cx="152.949" cy="18.9489" r="15.9489" fill="#363636"/>
<circle cx="137.956" cy="120.956" r="6.95579" fill="#363636"/>
<circle cx="45.0168" cy="21.0168" r="9.01677" fill="#363636"/>
<circle cx="36.8948" cy="105.895" r="4.89482" fill="#363636"/>
<circle cx="112.887" cy="51.3925" r="2.70503" fill="#363636"/>
<circle cx="124.895" cy="29.8948" r="4.89482" fill="#363636"/>
<circle cx="14.0404" cy="87.0404" r="14.0404" fill="#363636"/>
<circle cx="97" cy="92" r="18.5" stroke="#525050" stroke-width="3"/>
<path d="M24.5713 84.7256V54.0845C24.5713 53.6595 24.7292 53.2545 25.0144 52.9393L32.7141 44.4291H30.5713C29.6245 44.4291 28.857 43.6615 28.857 42.7148C28.857 41.768 29.6245 41.0005 30.5713 41.0005H44.2856C45.2323 41.0005 45.9999 41.768 45.9999 42.7148C45.9999 43.6615 45.2323 44.4291 44.2856 44.4291H42.5713L49.4751 52.9573C49.7222 53.2625 49.857 53.6433 49.857 54.036V84.7148C49.857 85.6615 49.0895 86.4291 48.1427 86.4291H26.2856C25.3388 86.4291 24.5713 85.6723 24.5713 84.7256Z" fill="#45C6C6"/>
<path d="M42.5713 44.4291L49.4751 52.9573C49.7222 53.2625 49.857 53.6433 49.857 54.036V84.7148C49.857 85.6615 49.0895 86.4291 48.1427 86.4291H26.2856C25.3388 86.4291 24.5713 85.6723 24.5713 84.7256C24.5713 79.7108 24.5713 64.6885 24.5713 54.0845C24.5713 53.6595 24.7292 53.2545 25.0144 52.9393L32.7141 44.4291M42.5713 44.4291H44.2856C45.2323 44.4291 45.9999 43.6615 45.9999 42.7148V42.7148C45.9999 41.768 45.2324 41.0005 44.2856 41.0005H30.5713C29.6245 41.0005 28.857 41.768 28.857 42.7148V42.7148C28.857 43.6615 29.6245 44.4291 30.5713 44.4291H32.7141M42.5713 44.4291H32.7141" stroke="#45C6C6" stroke-width="0.857143"/>
<path fill-rule="evenodd" clip-rule="evenodd" d="M92.1053 100.857H102.671C103.043 100.857 103.37 100.609 103.469 100.251L107.565 85.5435C107.712 85.0154 107.315 84.4927 106.767 84.4927H88.3517C87.832 84.4927 87.4406 84.9657 87.5378 85.4762L88.1788 88.8427C88.1788 88.8427 83.4155 89.257 84.6579 94.2284C85.9004 99.1998 90.6648 98.1641 90.6648 98.1641L91.3134 100.272C91.4204 100.62 91.7416 100.857 92.1053 100.857ZM86.3145 94.4355C85.0718 91.3284 88.5933 90.4998 88.5933 90.4998L90.2505 96.507C90.2505 96.507 87.5572 97.5427 86.3145 94.4355Z" fill="#22B692"/>
<path d="M88.5933 90.4998C88.5933 90.4998 85.0718 91.3284 86.3145 94.4355C87.5572 97.5427 90.2505 96.507 90.2505 96.507M88.5933 90.4998L90.2505 96.507M88.5933 90.4998L88.1788 88.8427M90.2505 96.507L90.6648 98.1641M90.6648 98.1641C90.6648 98.1641 85.9004 99.1998 84.6579 94.2284C83.4155 89.257 88.1788 88.8427 88.1788 88.8427M90.6648 98.1641L91.3134 100.272M88.1788 88.8427L87.5378 85.4762M102.671 100.857H92.1053M102.671 100.857C103.043 100.857 103.37 100.609 103.469 100.251M102.671 100.857V100.857C103.043 100.857 103.37 100.609 103.469 100.251V100.251M92.1053 100.857C91.7416 100.857 91.4204 100.62 91.3134 100.272M92.1053 100.857V100.857C91.7416 100.857 91.4204 100.62 91.3134 100.272V100.272M87.5378 85.4762C87.4406 84.9657 87.832 84.4927 88.3517 84.4927M87.5378 85.4762V85.4762C87.4406 84.9657 87.832 84.4927 88.3517 84.4927V84.4927M88.3517 84.4927H106.767M106.767 84.4927C107.315 84.4927 107.712 85.0154 107.565 85.5435M106.767 84.4927V84.4927C107.315 84.4927 107.712 85.0154 107.565 85.5435V85.5435M107.565 85.5435L103.469 100.251" stroke="#22B692" stroke-width="0.414286"/>
<path d="M99.9854 79.3149V81.8466" stroke="#70B4AF" stroke-width="0.414286"/>
<path d="M97.5 80.9722V83.2225" stroke="#70B4AF" stroke-width="0.414286"/>
<path d="M95.0146 77.2432V82.3064" stroke="#70B4AF" stroke-width="0.414286"/>
<path d="M86 83L97 100L102 92.5" stroke="#525050" stroke-width="5"/>
<path d="M105.086 54.4101V28.244L120.007 13.6211L130.452 23.9146L144.379 37.9925L134.431 28.045V54.4101C134.431 55.7813 133.32 56.8928 131.949 56.8928H126.967C125.595 56.8928 124.484 55.7813 124.484 54.4101V40.4752C124.484 39.1041 123.372 37.9925 122.001 37.9925H117.516C116.145 37.9925 115.034 39.1041 115.034 40.4752V54.4101C115.034 55.7813 113.922 56.8928 112.551 56.8928H107.569C106.198 56.8928 105.086 55.7813 105.086 54.4101Z" fill="#F1E259"/>
<path d="M105.086 28.244V54.4101C105.086 55.7813 106.198 56.8928 107.569 56.8928H112.551C113.922 56.8928 115.034 55.7813 115.034 54.4101V40.4752C115.034 39.1041 116.145 37.9925 117.516 37.9925H122.001C123.372 37.9925 124.484 39.1041 124.484 40.4752V54.4101C124.484 55.7813 125.595 56.8928 126.967 56.8928H131.949C133.32 56.8928 134.431 55.7813 134.431 54.4101V28.045L144.379 37.9925L130.452 23.9146M95.1387 37.9925L120.007 13.6211L130.452 23.9146M130.452 23.9146V15.6106" stroke="#F1E259" stroke-width="1.65513" stroke-linecap="square"/>
</g>
</g>
<defs>
<filter id="filter0_d" x="0" y="0" width="170" height="130" filterUnits="userSpaceOnUse" color-interpolation-filters="sRGB">
<feFlood flood-opacity="0" result="BackgroundImageFix"/>
<feColorMatrix in="SourceAlpha" type="matrix" values="0 0 0 0 0 0 0 0 0 0 0 0 0 0 0 0 0 0 127 0"/>
<feOffset/>
<feGaussianBlur stdDeviation="2.5"/>
<feColorMatrix type="matrix" values="0 0 0 0 0.0677919 0 0 0 0 0.0519097 0 0 0 0 0.108333 0 0 0 0.3 0"/>
<feBlend mode="normal" in2="BackgroundImageFix" result="effect1_dropShadow"/>
<feBlend mode="normal" in="SourceGraphic" in2="effect1_dropShadow" result="shape"/>
</filter>
<clipPath id="clip0">
<rect x="5" y="5" width="160" height="120" rx="20.4682" fill="white"/>
</clipPath>
</defs>
</svg>
