<svg width="29" height="68" viewBox="0 0 29 68" fill="none" xmlns="http://www.w3.org/2000/svg">
<path d="M2.80176 51.8549C2.80176 49.9701 28.0576 50.0319 28.0576 51.8549C24.4734 53.6161 3.3082 53.1526 2.80176 51.8549Z" fill="#DC3E3E"/>
<path d="M15.9898 52.998C8.45279 39.358 25.7845 34.6445 15.9898 19.937" stroke="#19AD78" stroke-width="1.91568" stroke-linecap="round" stroke-linejoin="round"/>
<path d="M10.0345 37.7616C2.35699 40.7547 4.64823 30.0718 4.64823 30.0718C4.64823 30.0718 15.3003 31.4004 10.0345 37.7616Z" fill="#19AD78" stroke="#19AD78" stroke-width="0.0617963"/>
<path d="M14.0296 42.6162C13.9078 39.3859 10.2291 40.8241 9.76562 37.3018" stroke="#19AD78" stroke-width="0.988741"/>
<path d="M18.4795 34.1501C20.3025 30.3806 21.662 32.2035 23.2378 29.4536" stroke="#19AD78" stroke-width="0.988741"/>
<path d="M23.0884 29.8845C28.7368 34.5015 28.737 23.2739 28.737 23.2739C28.737 23.2739 17.4399 25.2675 23.0884 29.8845Z" fill="#19AD78" stroke="#19AD78" stroke-width="0.0617963"/>
<path d="M14.9877 6.89814C15.5747 -8.64359 35.6276 6.18749 21.1364 11.5019C34.3453 8.24538 25.9391 31.1009 17.8882 20.3581C26.4308 32.7988 -1.44337 29.6184 10.4765 18.9484C-2.25347 29.392 -3.89111 5.8785 8.37545 11.5019C-5.31244 3.80833 14.9877 -6.57344 14.9877 6.89814Z" fill="#FF4F4F"/>
<circle cx="14.7097" cy="13.7576" r="6.79759" fill="#E62E2E"/>
<path fill-rule="evenodd" clip-rule="evenodd" d="M2.7832 51.7285L8.08343 66.1189C8.3519 66.8478 9.04631 67.3321 9.82308 67.3321H21.7002C22.5059 67.3321 23.2193 66.8117 23.4654 66.0445L28.0579 51.7285C26.9147 53.2425 4.20452 53.3352 2.7832 51.7285Z" fill="#913232"/>
</svg>
