<svg width="170" height="130" viewBox="0 0 170 130" fill="none" xmlns="http://www.w3.org/2000/svg">
<g filter="url(#filter0_d)">
<rect x="5" y="5" width="160" height="120" rx="20.4682" fill="#2B2D31"/>
<path d="M64.1373 15.8486L61.917 18.0107L64.9724 18.5282L64.6187 20.107L61.637 19.2609L62.7284 22.1871L61.1271 22.6296L60.422 19.6675L58.5124 22.0327L57.2846 20.9565L59.4731 18.7873L56.4519 18.2663L56.8056 16.6875L59.7579 17.5158L58.6911 14.6285L60.276 14.1602L60.9975 17.1481L62.9037 14.7488L64.1373 15.8486Z" fill="#666060"/>
<path d="M26.5199 66.8507L29.3456 70.8502L27.5897 72.0908L24.764 68.0913L21.0394 70.7228L19.8176 68.9935L23.5422 66.362L20.7728 62.4422L22.5287 61.2017L25.2981 65.1214L29.0227 62.4899L30.2445 64.2192L26.5199 66.8507Z" fill="#666060"/>
<path d="M142.34 77.7574C142.158 77.9428 141.935 78.037 141.67 78.0399C141.404 78.0429 141.179 77.9537 140.993 77.7724C140.808 77.5911 140.714 77.3677 140.711 77.1023C140.708 76.8369 140.797 76.6115 140.978 76.4261C141.16 76.2406 141.383 76.1465 141.648 76.1435C141.914 76.1405 142.139 76.2297 142.325 76.411C142.51 76.5924 142.604 76.8157 142.607 77.0811C142.61 77.3466 142.521 77.572 142.34 77.7574ZM142.281 72.4806C142.099 72.666 141.876 72.7602 141.611 72.7632C141.345 72.7661 141.12 72.677 140.934 72.4956C140.749 72.3143 140.655 72.0909 140.652 71.8255C140.649 71.5601 140.738 71.3347 140.919 71.1493C141.101 70.9639 141.324 70.8697 141.59 70.8667C141.855 70.8638 142.08 70.953 142.266 71.1343C142.451 71.3156 142.545 71.539 142.548 71.8044C142.551 72.0698 142.462 72.2952 142.281 72.4806Z" fill="#666060"/>
<path d="M132.718 111.238L137.059 108.972L138.054 110.878L133.712 113.144L135.822 117.187L133.945 118.166L131.835 114.123L127.581 116.344L126.586 114.438L130.841 112.217L128.731 108.174L130.608 107.195L132.718 111.238Z" fill="#666060"/>
<path d="M133.273 28.1752L135.322 38.8603L133.307 39.2469L131.257 28.5618L133.273 28.1752ZM128.869 29.02L130.918 39.7051L128.903 40.0917L126.853 29.4066L128.869 29.02Z" fill="#666060"/>
<path d="M68.7531 79.5054L61.8777 81.3669L61.3243 79.3231L68.1998 77.4616L68.7531 79.5054Z" fill="#666060"/>
<path d="M17.9679 29.3252L19.2477 34.052L17.1725 34.6139L15.8927 29.887L11.4908 31.0788L10.9374 29.0351L15.3394 27.8432L14.0851 23.2107L16.1603 22.6489L17.4146 27.2814L21.8165 26.0896L22.3699 28.1333L17.9679 29.3252Z" fill="#666060"/>
<g filter="url(#filter1_d)">
<rect x="24" y="71" width="45.2644" height="34.2912" rx="6.85824" fill="#591DBC"/>
<path d="M41.8236 90.4938H36.5513V89.1918H41.8236V90.4938ZM43.5837 86.2904C43.5837 85.2778 43.948 84.4366 44.6767 83.7668C45.4054 83.0917 46.3162 82.7542 47.4093 82.7542C48.4434 82.7542 49.3194 83.0622 50.0374 83.6784C50.7553 84.2946 51.1143 85.0474 51.1143 85.9368C51.1143 86.5798 50.9375 87.1986 50.5839 87.7934C50.2303 88.3881 49.5659 89.1891 48.5907 90.1964L45.6572 93.2264V93.2585H51.3072V94.5444H43.656V93.5478L47.7388 89.2481C48.5157 88.4283 49.0301 87.8068 49.2819 87.3835C49.5391 86.9602 49.6677 86.5074 49.6677 86.0252C49.6677 85.468 49.4426 84.9938 48.9926 84.6027C48.5478 84.2115 48.0067 84.016 47.3691 84.016C46.6886 84.016 46.1207 84.233 45.6652 84.667C45.2098 85.101 44.9821 85.6421 44.9821 86.2904V86.2985H43.5837V86.2904Z" fill="white"/>
<g clip-path="url(#clip0)">
<path d="M61.1525 79.4663C60.7704 79.4666 60.3962 79.5748 60.0729 79.7784C59.7496 79.9821 59.4904 80.2729 59.3252 80.6175L59.3201 80.6296C58.9881 79.937 58.2929 79.4671 57.4876 79.4663H56.4268V79.6592C56.4268 80.7759 57.3354 81.6845 58.4521 81.6845H60.1881C61.3048 81.6845 62.2134 80.7759 62.2134 79.6592V79.4663H61.1525ZM58.4521 81.2987C58.0508 81.2983 57.6635 81.1508 57.3635 80.8843C57.0636 80.6177 56.8716 80.2505 56.8238 79.8521H57.4876C57.8889 79.8526 58.2762 80 58.5762 80.2666C58.8762 80.5331 59.0682 80.9003 59.1159 81.2987H58.4521ZM60.1881 81.2987H59.5243C59.572 80.9003 59.764 80.5331 60.064 80.2666C60.364 80 60.7512 79.8526 61.1525 79.8521H61.8163C61.7686 80.2505 61.5766 80.6177 61.2766 80.8843C60.9766 81.1508 60.5894 81.2983 60.1881 81.2987Z" fill="white"/>
<path d="M58.2743 78.9683C58.3108 79.1852 58.4142 79.3852 58.5701 79.5403L58.6267 79.5969H58.7095C58.9386 79.5969 59.1505 79.5238 59.3234 79.3993L59.3203 79.4014C59.4984 79.5289 59.7121 79.5972 59.9311 79.5966H60.0139L60.0705 79.54C60.2252 79.3866 60.3283 79.1889 60.3655 78.9742L60.3663 78.968C60.5831 78.9316 60.7831 78.8281 60.9382 78.6723L60.9948 78.6157V78.5357V78.5329C60.9948 78.3037 60.9218 78.0918 60.7973 77.919L60.7994 77.9221C60.9269 77.744 60.9952 77.5303 60.9946 77.3113V77.3082V77.3084V77.2285L60.938 77.1719C60.7846 77.0172 60.5868 76.9141 60.3722 76.8769L60.366 76.8761C60.3295 76.6593 60.2261 76.4593 60.0702 76.3041L60.0137 76.2476H59.9308C59.7017 76.2476 59.4898 76.3206 59.3169 76.4451L59.32 76.443C59.1419 76.3155 58.9283 76.2472 58.7092 76.2478H58.6264L58.5698 76.3044C58.4151 76.4578 58.312 76.6555 58.2748 76.8702L58.2741 76.8764C58.0572 76.9129 57.8572 77.0163 57.7021 77.1721L57.6455 77.2287V77.3115C57.6455 77.5407 57.7185 77.7526 57.843 77.9254L57.841 77.9223C57.7134 78.1004 57.6452 78.3141 57.6458 78.5332V78.5362V78.536V78.616L57.7023 78.6725C57.8558 78.8272 58.0535 78.9303 58.2682 78.9675L58.2743 78.9683ZM58.2291 77.786C58.1228 77.6805 58.055 77.5424 58.0364 77.3938L58.0362 77.3905C58.1491 77.3012 58.2934 77.2472 58.4502 77.2472H58.6452V77.0543V77.0523C58.6452 76.8954 58.6992 76.7511 58.7895 76.6369L58.7884 76.6382C58.9382 76.656 59.0775 76.724 59.1837 76.8311L59.32 76.9674L59.4563 76.8311C59.5618 76.7248 59.6999 76.657 59.8485 76.6385L59.8519 76.6382C59.9411 76.7511 59.9951 76.8954 59.9951 77.0523V77.2472H60.1901C60.347 77.2472 60.4912 77.3012 60.6054 77.3915L60.6042 77.3905C60.5863 77.5403 60.5183 77.6797 60.4113 77.786L60.275 77.9223L60.4113 78.0586C60.5149 78.1618 60.5849 78.2983 60.6039 78.4509L60.6042 78.4542C60.4912 78.5434 60.347 78.5974 60.1901 78.5974H59.9951V78.7924C59.9951 78.9493 59.9411 79.0936 59.8509 79.2077L59.8519 79.2065C59.7021 79.1886 59.5627 79.1206 59.4563 79.0136L59.32 78.8773L59.1837 79.0136C59.0782 79.1198 58.9401 79.1877 58.7915 79.2062L58.7882 79.2065C58.6989 79.0936 58.6449 78.9493 58.6449 78.7924V78.5974H58.45C58.2931 78.5974 58.1488 78.5434 58.0346 78.4532L58.0359 78.4542C58.0537 78.3044 58.1217 78.1651 58.2288 78.0589L58.3651 77.9226L58.2291 77.786Z" fill="white"/>
</g>
</g>
<g filter="url(#filter2_d)">
<rect x="110" y="69" width="29.4904" height="22.3412" rx="4.46825" fill="#591DBC"/>
<path d="M121.917 81.3609H118.482V80.5127H121.917V81.3609ZM124.65 80.5127V79.7168H125.556C125.989 79.7168 126.343 79.5928 126.619 79.345C126.894 79.0937 127.032 78.776 127.032 78.392C127.032 78.008 126.905 77.7026 126.65 77.4757C126.395 77.2488 126.034 77.1353 125.566 77.1353C125.133 77.1353 124.781 77.2505 124.509 77.4809C124.236 77.7113 124.079 78.0255 124.037 78.4234H123.131C123.184 77.7811 123.432 77.2697 123.875 76.8892C124.322 76.5087 124.899 76.3185 125.608 76.3185C126.289 76.3185 126.854 76.5017 127.305 76.8683C127.755 77.2348 127.98 77.7008 127.98 78.2663C127.98 78.7376 127.84 79.1338 127.561 79.455C127.282 79.7761 126.905 79.9786 126.43 80.0624V80.0833C127.003 80.1182 127.458 80.3015 127.797 80.6331C128.135 80.9612 128.305 81.3906 128.305 81.9212C128.305 82.3436 128.186 82.7241 127.949 83.0627C127.711 83.4013 127.39 83.6631 126.985 83.8481C126.58 84.0332 126.132 84.1257 125.64 84.1257C124.858 84.1257 124.227 83.9302 123.749 83.5392C123.271 83.1482 123.014 82.6351 122.98 81.9998H123.885C123.927 82.3942 124.104 82.7119 124.414 82.9528C124.725 83.1901 125.13 83.3088 125.629 83.3088C126.128 83.3088 126.538 83.1814 126.86 82.9266C127.184 82.6717 127.347 82.3471 127.347 81.9526C127.347 81.5093 127.189 81.1585 126.875 80.9002C126.565 80.6418 126.139 80.5127 125.598 80.5127H124.65Z" fill="white"/>
</g>
<g filter="url(#filter3_d)">
<rect x="71" y="29" width="29.4904" height="22.3412" rx="4.46825" fill="#591DBC"/>
<path d="M82.6654 41.4447V43.8429H81.8171V41.4447H79.5812V40.5965H81.8171V38.2559H82.6654V40.5965H84.9012V41.4447H82.6654ZM88.8389 44.1309C88.2734 44.1309 87.7742 43.9843 87.3413 43.6911C86.9084 43.3943 86.5751 42.9737 86.3412 42.4291C86.0933 41.8566 85.9694 41.1637 85.9694 40.3504C85.9694 39.0762 86.226 38.0848 86.7391 37.3762C87.2558 36.6675 87.9766 36.3132 88.9017 36.3132C89.544 36.3132 90.0921 36.4913 90.5459 36.8473C90.9997 37.2034 91.2877 37.6781 91.4099 38.2716H90.4516C90.3504 37.9295 90.1584 37.6572 89.8756 37.4547C89.5929 37.2488 89.2647 37.1458 88.8912 37.1458C88.2594 37.1458 87.7707 37.4163 87.4251 37.9574C87.0795 38.4985 86.898 39.2717 86.8805 40.277H86.8962C87.0673 39.907 87.3448 39.6103 87.7288 39.3869C88.1128 39.1635 88.5387 39.0518 89.0064 39.0518C89.7255 39.0518 90.3225 39.2891 90.7972 39.7639C91.2755 40.2386 91.5146 40.8338 91.5146 41.5494C91.5146 42.2965 91.2615 42.9144 90.7553 43.4031C90.2526 43.8883 89.6138 44.1309 88.8389 44.1309ZM87.6031 42.7904C87.9382 43.1256 88.3467 43.2931 88.8284 43.2931C89.3101 43.2931 89.7186 43.1273 90.0537 42.7957C90.3888 42.464 90.5563 42.0591 90.5563 41.5809C90.5563 41.0852 90.3958 40.6785 90.0746 40.3608C89.7535 40.0397 89.3433 39.8791 88.8441 39.8791C88.3449 39.8791 87.9295 40.0379 87.5979 40.3556C87.2697 40.6733 87.1057 41.073 87.1057 41.5547C87.1057 42.0399 87.2715 42.4518 87.6031 42.7904Z" fill="white"/>
</g>
<g filter="url(#filter4_d)">
<rect x="24" y="25" width="14" height="10.6061" rx="2.12121" fill="#591DBC"/>
<path d="M29.5379 31.1605V32.299H29.1352V31.1605H28.0738V30.7578H29.1352V29.6466H29.5379V30.7578H30.5993V31.1605H29.5379ZM32.4687 32.4357C32.2002 32.4357 31.9632 32.3661 31.7577 32.2269C31.5522 32.086 31.394 31.8863 31.2829 31.6278C31.1653 31.356 31.1064 31.0271 31.1064 30.6409C31.1064 30.0361 31.2282 29.5654 31.4719 29.229C31.7171 28.8926 32.0593 28.7244 32.4985 28.7244C32.8034 28.7244 33.0636 28.8089 33.279 28.9779C33.4945 29.147 33.6312 29.3724 33.6892 29.6541H33.2343C33.1862 29.4917 33.0951 29.3624 32.9608 29.2663C32.8266 29.1685 32.6708 29.1196 32.4935 29.1196C32.1936 29.1196 31.9616 29.2481 31.7975 29.5049C31.6334 29.7618 31.5473 30.1289 31.539 30.6061H31.5464C31.6276 30.4305 31.7594 30.2896 31.9417 30.1835C32.124 30.0775 32.3261 30.0245 32.5482 30.0245C32.8896 30.0245 33.173 30.1371 33.3983 30.3625C33.6254 30.5879 33.7389 30.8705 33.7389 31.2102C33.7389 31.5648 33.6188 31.8581 33.3785 32.0902C33.1398 32.3205 32.8366 32.4357 32.4687 32.4357ZM31.882 31.7993C32.0411 31.9584 32.235 32.038 32.4637 32.038C32.6924 32.038 32.8863 31.9592 33.0454 31.8018C33.2045 31.6444 33.284 31.4521 33.284 31.2251C33.284 30.9898 33.2078 30.7967 33.0553 30.6459C32.9028 30.4934 32.7081 30.4172 32.4711 30.4172C32.2342 30.4172 32.037 30.4926 31.8795 30.6434C31.7238 30.7942 31.6459 30.984 31.6459 31.2127C31.6459 31.443 31.7246 31.6386 31.882 31.7993Z" fill="white"/>
</g>
</g>
<defs>
<filter id="filter0_d" x="0" y="0" width="170" height="130" filterUnits="userSpaceOnUse" color-interpolation-filters="sRGB">
<feFlood flood-opacity="0" result="BackgroundImageFix"/>
<feColorMatrix in="SourceAlpha" type="matrix" values="0 0 0 0 0 0 0 0 0 0 0 0 0 0 0 0 0 0 127 0"/>
<feOffset/>
<feGaussianBlur stdDeviation="2.5"/>
<feColorMatrix type="matrix" values="0 0 0 0 0.0677919 0 0 0 0 0.0519097 0 0 0 0 0.108333 0 0 0 0.3 0"/>
<feBlend mode="normal" in2="BackgroundImageFix" result="effect1_dropShadow"/>
<feBlend mode="normal" in="SourceGraphic" in2="effect1_dropShadow" result="shape"/>
</filter>
<filter id="filter1_d" x="21.2567" y="68.9425" width="50.7509" height="39.7778" filterUnits="userSpaceOnUse" color-interpolation-filters="sRGB">
<feFlood flood-opacity="0" result="BackgroundImageFix"/>
<feColorMatrix in="SourceAlpha" type="matrix" values="0 0 0 0 0 0 0 0 0 0 0 0 0 0 0 0 0 0 127 0"/>
<feOffset dy="0.685824"/>
<feGaussianBlur stdDeviation="1.37165"/>
<feColorMatrix type="matrix" values="0 0 0 0 0.0666111 0 0 0 0 0.0374306 0 0 0 0 0.183333 0 0 0 0.25 0"/>
<feBlend mode="normal" in2="BackgroundImageFix" result="effect1_dropShadow"/>
<feBlend mode="normal" in="SourceGraphic" in2="effect1_dropShadow" result="shape"/>
</filter>
<filter id="filter2_d" x="108.213" y="67.6595" width="33.065" height="25.9158" filterUnits="userSpaceOnUse" color-interpolation-filters="sRGB">
<feFlood flood-opacity="0" result="BackgroundImageFix"/>
<feColorMatrix in="SourceAlpha" type="matrix" values="0 0 0 0 0 0 0 0 0 0 0 0 0 0 0 0 0 0 127 0"/>
<feOffset dy="0.446824"/>
<feGaussianBlur stdDeviation="0.893649"/>
<feColorMatrix type="matrix" values="0 0 0 0 0.0666111 0 0 0 0 0.0374306 0 0 0 0 0.183333 0 0 0 0.25 0"/>
<feBlend mode="normal" in2="BackgroundImageFix" result="effect1_dropShadow"/>
<feBlend mode="normal" in="SourceGraphic" in2="effect1_dropShadow" result="shape"/>
</filter>
<filter id="filter3_d" x="69.2127" y="27.6595" width="33.065" height="25.9158" filterUnits="userSpaceOnUse" color-interpolation-filters="sRGB">
<feFlood flood-opacity="0" result="BackgroundImageFix"/>
<feColorMatrix in="SourceAlpha" type="matrix" values="0 0 0 0 0 0 0 0 0 0 0 0 0 0 0 0 0 0 127 0"/>
<feOffset dy="0.446824"/>
<feGaussianBlur stdDeviation="0.893649"/>
<feColorMatrix type="matrix" values="0 0 0 0 0.0666111 0 0 0 0 0.0374306 0 0 0 0 0.183333 0 0 0 0.25 0"/>
<feBlend mode="normal" in2="BackgroundImageFix" result="effect1_dropShadow"/>
<feBlend mode="normal" in="SourceGraphic" in2="effect1_dropShadow" result="shape"/>
</filter>
<filter id="filter4_d" x="23.1515" y="24.3636" width="15.697" height="12.303" filterUnits="userSpaceOnUse" color-interpolation-filters="sRGB">
<feFlood flood-opacity="0" result="BackgroundImageFix"/>
<feColorMatrix in="SourceAlpha" type="matrix" values="0 0 0 0 0 0 0 0 0 0 0 0 0 0 0 0 0 0 127 0"/>
<feOffset dy="0.212121"/>
<feGaussianBlur stdDeviation="0.424242"/>
<feColorMatrix type="matrix" values="0 0 0 0 0.0666111 0 0 0 0 0.0374306 0 0 0 0 0.183333 0 0 0 0.25 0"/>
<feBlend mode="normal" in2="BackgroundImageFix" result="effect1_dropShadow"/>
<feBlend mode="normal" in="SourceGraphic" in2="effect1_dropShadow" result="shape"/>
</filter>
<clipPath id="clip0">
<rect x="56.2334" y="75.8013" width="6.17241" height="6.17241" fill="white"/>
</clipPath>
</defs>
</svg>
