<svg width="170" height="130" viewBox="0 0 170 130" fill="none" xmlns="http://www.w3.org/2000/svg">
<g filter="url(#filter0_d)">
<g clip-path="url(#clip0)">
<rect x="5" y="5" width="160" height="120" rx="21.0652" fill="#2B2D31"/>
<path d="M11.3273 28.3656L5.78057 40.1268L5.84787 40.2303L18.7217 39.7342L19.9414 41.6096L4.57746 42.0689L3.66052 40.6591L10.0991 26.4774L11.3273 28.3656Z" fill="#3E3E3E"/>
<path d="M15.9529 79.9858L25.5032 71.1608L25.4796 71.0396L13.3583 66.6745L12.9303 64.4787L27.3465 69.8112L27.6682 71.4618L16.3838 82.1967L15.9529 79.9858Z" fill="#3E3E3E"/>
<path d="M154.667 35.2443L151.497 47.8554L151.583 47.944L164.119 44.9701L165.678 46.5745L150.692 49.9933L149.52 48.7873L153.098 33.6288L154.667 35.2443Z" fill="#3E3E3E"/>
<path d="M88.2369 35.7401L104.72 20.5089L104.679 20.2998L83.7589 12.766L83.0202 8.97621L107.901 18.1796L108.457 21.0285L88.9807 39.5561L88.2369 35.7401Z" fill="#3E3E3E"/>
<path d="M40.3067 109.116L34.7601 120.877L34.8274 120.98L47.7011 120.484L48.9209 122.36L33.557 122.819L32.64 121.409L39.0785 107.227L40.3067 109.116Z" fill="#3E3E3E"/>
<path d="M117.216 116.49L133.7 101.259L133.659 101.05L112.738 93.516L112 89.7262L136.881 98.9296L137.436 101.779L117.96 120.306L117.216 116.49Z" fill="#3E3E3E"/>
<rect x="38.3535" y="26.0649" width="98.3043" height="31.5978" rx="8.77717" fill="#3ED6B1"/>
<path d="M72.6927 39.4253C72.6985 38.3739 73.0756 37.5025 73.8242 36.811C74.5785 36.1139 75.5213 35.7653 76.6528 35.7653C77.7328 35.7653 78.6442 36.091 79.3871 36.7424C80.1299 37.3939 80.5013 38.1939 80.5013 39.1425C80.5013 39.8167 80.3128 40.471 79.9356 41.1053C79.5642 41.7339 78.8642 42.5825 77.8356 43.651L74.3899 47.2511V47.2853H80.8185V48.3311H72.7527V47.5082L77.1242 42.8882C78.0099 41.9568 78.5985 41.2453 78.8899 40.7539C79.1871 40.2625 79.3356 39.7482 79.3356 39.211C79.3356 38.5367 79.0728 37.9653 78.5471 37.4967C78.0213 37.0282 77.3785 36.7939 76.6185 36.7939C75.8242 36.7939 75.1613 37.0453 74.6299 37.5482C74.1042 38.0453 73.8356 38.671 73.8242 39.4253V39.4339H72.6927V39.4253ZM87.3328 43.9596V48.0568H86.2699V43.9596H82.5156V42.8968H86.2699V38.911H87.3328V42.8968H91.0871V43.9596H87.3328ZM95.4585 42.4425V41.4482H96.8985C97.7042 41.4482 98.3614 41.2253 98.87 40.7796C99.3785 40.3339 99.6328 39.7653 99.6328 39.0739C99.6328 38.3939 99.39 37.8453 98.9043 37.4282C98.4243 37.0053 97.7728 36.7939 96.95 36.7939C96.1842 36.7939 95.55 37.0053 95.0471 37.4282C94.5442 37.851 94.2614 38.4053 94.1985 39.091H93.0671C93.1414 38.0967 93.5357 37.2939 94.25 36.6824C94.97 36.071 95.8871 35.7653 97.0014 35.7653C98.0928 35.7653 99.0014 36.0653 99.7271 36.6653C100.453 37.2596 100.816 38.0139 100.816 38.9282C100.816 39.6996 100.584 40.3482 100.121 40.8739C99.6585 41.3996 99.03 41.7339 98.2357 41.8768V41.911C99.1843 41.9682 99.9385 42.271 100.499 42.8196C101.064 43.3625 101.347 44.071 101.347 44.9453C101.347 45.631 101.159 46.2482 100.781 46.7968C100.404 47.3453 99.89 47.7711 99.2385 48.0739C98.5871 48.3768 97.8643 48.5282 97.07 48.5282C95.8357 48.5282 94.8271 48.2111 94.0442 47.5768C93.2614 46.9425 92.8499 46.1253 92.8099 45.1253H93.9414C93.9871 45.8225 94.2957 46.3939 94.8671 46.8396C95.4442 47.2796 96.1757 47.4996 97.0614 47.4996C97.9585 47.4996 98.6985 47.2625 99.2814 46.7882C99.8643 46.3139 100.156 45.711 100.156 44.9796C100.156 44.191 99.87 43.571 99.2985 43.1196C98.7271 42.6682 97.9443 42.4425 96.95 42.4425H95.4585Z" fill="white"/>
<rect x="38.3535" y="75.2173" width="98.3043" height="31.5978" rx="8.77717" fill="#3ED6B1"/>
<path d="M75.127 91.5948V90.6005H76.567C77.3728 90.6005 78.0299 90.3777 78.5385 89.9319C79.0471 89.4862 79.3013 88.9177 79.3013 88.2262C79.3013 87.5462 79.0585 86.9977 78.5728 86.5805C78.0928 86.1577 77.4413 85.9462 76.6185 85.9462C75.8528 85.9462 75.2185 86.1577 74.7156 86.5805C74.2128 87.0034 73.9299 87.5577 73.867 88.2434H72.7356C72.8099 87.2491 73.2042 86.4462 73.9185 85.8348C74.6385 85.2234 75.5556 84.9176 76.6699 84.9176C77.7613 84.9176 78.6699 85.2176 79.3956 85.8177C80.1213 86.4119 80.4842 87.1662 80.4842 88.0805C80.4842 88.8519 80.2528 89.5005 79.7899 90.0262C79.3271 90.5519 78.6985 90.8862 77.9042 91.0291V91.0634C78.8528 91.1205 79.6071 91.4234 80.1671 91.972C80.7328 92.5148 81.0156 93.2234 81.0156 94.0977C81.0156 94.7834 80.8271 95.4005 80.4499 95.9491C80.0728 96.4977 79.5585 96.9234 78.9071 97.2263C78.2556 97.5291 77.5328 97.6805 76.7385 97.6805C75.5042 97.6805 74.4956 97.3634 73.7128 96.7291C72.9299 96.0948 72.5185 95.2777 72.4785 94.2777H73.6099C73.6556 94.9748 73.9642 95.5462 74.5356 95.992C75.1128 96.432 75.8442 96.652 76.7299 96.652C77.627 96.652 78.3671 96.4148 78.9499 95.9405C79.5328 95.4662 79.8242 94.8634 79.8242 94.132C79.8242 93.3434 79.5385 92.7234 78.9671 92.272C78.3956 91.8205 77.6128 91.5948 76.6185 91.5948H75.127ZM87.6071 93.112V97.2091H86.5442V93.112H82.7899V92.0491H86.5442V88.0634H87.6071V92.0491H91.3614V93.112H87.6071ZM93.2985 88.5777C93.3042 87.5262 93.6814 86.6548 94.43 85.9634C95.1842 85.2662 96.1271 84.9176 97.2585 84.9176C98.3385 84.9176 99.25 85.2434 99.9928 85.8948C100.736 86.5462 101.107 87.3462 101.107 88.2948C101.107 88.9691 100.919 89.6234 100.541 90.2577C100.17 90.8862 99.47 91.7348 98.4414 92.8034L94.9957 96.4034V96.4377H101.424V97.4834H93.3585V96.6605L97.73 92.0405C98.6157 91.1091 99.2043 90.3977 99.4957 89.9062C99.7928 89.4148 99.9414 88.9005 99.9414 88.3634C99.9414 87.6891 99.6785 87.1177 99.1528 86.6491C98.6271 86.1805 97.9843 85.9462 97.2242 85.9462C96.43 85.9462 95.7671 86.1977 95.2357 86.7005C94.71 87.1977 94.4414 87.8234 94.43 88.5777V88.5862H93.2985V88.5777Z" fill="white"/>
</g>
</g>
<defs>
<filter id="filter0_d" x="0" y="0" width="170" height="130" filterUnits="userSpaceOnUse" color-interpolation-filters="sRGB">
<feFlood flood-opacity="0" result="BackgroundImageFix"/>
<feColorMatrix in="SourceAlpha" type="matrix" values="0 0 0 0 0 0 0 0 0 0 0 0 0 0 0 0 0 0 127 0"/>
<feOffset/>
<feGaussianBlur stdDeviation="2.5"/>
<feColorMatrix type="matrix" values="0 0 0 0 0.0677919 0 0 0 0 0.0519097 0 0 0 0 0.108333 0 0 0 0.2 0"/>
<feBlend mode="normal" in2="BackgroundImageFix" result="effect1_dropShadow"/>
<feBlend mode="normal" in="SourceGraphic" in2="effect1_dropShadow" result="shape"/>
</filter>
<clipPath id="clip0">
<rect x="5" y="5" width="160" height="120" rx="21.0652" fill="white"/>
</clipPath>
</defs>
</svg>
