<svg width="45" height="64" viewBox="0 0 45 64" fill="none" xmlns="http://www.w3.org/2000/svg">
<path d="M1.51367 48.058C1.51367 46.1732 26.7696 46.235 26.7696 48.058C23.1853 49.8192 2.02011 49.3557 1.51367 48.058Z" fill="#DC3E3E"/>
<path d="M14.7697 49.9504C6.92716 42.1838 22.4604 28.6431 10.509 19.4969C-1.44238 10.3506 10.5091 -6.86912 24.4533 6.46712" stroke="#AA6D35" stroke-width="2.34826" stroke-linecap="round" stroke-linejoin="round"/>
<path d="M15.0006 28.1904C14.7992 33.5325 8.71567 31.154 7.94922 36.979" stroke="#AA6D35" stroke-width="1.6351" stroke-linecap="round"/>
<path d="M7.83628 36.4043C-0.128051 32.0092 1.06316 45.9722 1.06316 45.9722C1.06316 45.9722 15.8006 40.7993 7.83628 36.4043Z" fill="#8BB72E" stroke="#C5C826" stroke-width="0.102194"/>
<path d="M14.0811 23.3803C22.6142 23.3803 17.0958 30.1761 21.95 31.147" stroke="#AA6D35" stroke-width="1.6351" stroke-linecap="round"/>
<path d="M21.2022 31.1032C28.4674 25.1783 28.4676 39.5864 28.4676 39.5864C28.4676 39.5864 13.937 37.0281 21.2022 31.1032Z" fill="#B7992E" stroke="#C5C826" stroke-width="0.102194"/>
<path d="M37.4368 16.8874C37.4147 16.8556 37.3947 16.8234 37.3768 16.7907C37.3768 16.7907 40.7536 17.6064 41.1536 18.1335C41.4334 18.5021 39.7919 18.2782 38.5577 17.7047C39.6042 18.8575 40.0253 20.6781 38.2735 20.8951C35.7799 21.2039 37.0088 16.7719 37.0088 16.7719C37.1518 16.7917 37.2952 16.8312 37.4368 16.8874Z" fill="#E52E2E"/>
<path d="M37.2927 16.9897C37.4944 16.8097 38.28 17.0911 40.2338 18.0864C40.5681 18.2566 40.8186 18.3117 40.9928 18.2685C43.514 17.642 30.0535 -3.59321 23.2966 5.49812C16.4132 14.7596 36.7199 22.4367 38.3381 20.8156C38.4181 20.7354 38.4525 20.6325 38.4355 20.5059C38.3187 19.6318 37.9206 18.7914 37.6149 18.1461L37.601 18.1167C37.3294 17.5433 37.1368 17.1288 37.2927 16.9897Z" fill="#BC5737"/>
<path fill-rule="evenodd" clip-rule="evenodd" d="M1.49414 47.9316L6.79437 62.3221C7.06284 63.051 7.75725 63.5352 8.53401 63.5352H20.4111C21.2168 63.5352 21.9303 63.0148 22.1764 62.2476L26.7688 47.9316C25.6256 49.4456 2.91546 49.5383 1.49414 47.9316Z" fill="#913232"/>
</svg>
