<svg width="34" height="69" viewBox="0 0 34 69" fill="none" xmlns="http://www.w3.org/2000/svg">
<path d="M3.5127 53.058C3.5127 51.1732 28.7686 51.235 28.7686 53.058C25.1844 54.8192 4.01914 54.3557 3.5127 53.058Z" fill="#DC3E3E"/>
<path d="M16.7695 54.9509C8.92694 47.1843 23.4996 33 8.50007 25.5003C-6.49946 18.0006 7 -4.5 19.9997 10.0005" stroke="#AA6D35" stroke-width="2.34826" stroke-linecap="round" stroke-linejoin="round"/>
<path d="M15.0006 33.9999C14.7992 39.3421 8.71567 36.9635 7.94922 42.7886" stroke="#AA6D35" stroke-width="1.6351" stroke-linecap="round"/>
<path d="M7.83628 42.2138C-0.128051 37.8188 1.06316 51.7817 1.06316 51.7817C1.06316 51.7817 15.8006 46.6088 7.83628 42.2138Z" fill="#8BB72E" stroke="#C5C826" stroke-width="0.102194"/>
<path d="M14 28.9999C22.5332 28.9999 17.0147 35.7958 21.8689 36.7666" stroke="#AA6D35" stroke-width="1.6351" stroke-linecap="round"/>
<path d="M21.1221 36.7223C28.3873 30.7974 28.3875 45.2056 28.3875 45.2056C28.3875 45.2056 13.8569 42.6473 21.1221 36.7223Z" fill="#B7992E" stroke="#C5C826" stroke-width="0.102194"/>
<path d="M26.2454 15.8874C26.2233 15.8556 26.2033 15.8234 26.1854 15.7907C26.1854 15.7907 29.5622 16.6064 29.9622 17.1335C30.242 17.5021 28.6005 17.2782 27.3663 16.7047C28.4128 17.8575 28.8339 19.6781 27.0821 19.8951C24.5885 20.2039 25.8174 15.7719 25.8174 15.7719C25.9604 15.7917 26.1037 15.8312 26.2454 15.8874Z" fill="#E52E2E"/>
<path d="M26.1013 15.9897C26.303 15.8097 27.0886 16.0911 29.0424 17.0864C29.3767 17.2566 29.6272 17.3117 29.8014 17.2685C32.3226 16.642 18.8621 -4.59321 12.1052 4.49812C5.22176 13.7596 25.5285 21.4367 27.1467 19.8156C27.2267 19.7354 27.261 19.6325 27.2441 19.5059C27.1273 18.6318 26.7292 17.7914 26.4235 17.1461L26.4096 17.1167C26.138 16.5433 25.9454 16.1288 26.1013 15.9897Z" fill="#BC5737"/>
<path fill-rule="evenodd" clip-rule="evenodd" d="M3.49414 52.9321L8.79437 67.3225C9.06284 68.0514 9.75725 68.5357 10.534 68.5357H22.4111C23.2168 68.5357 23.9303 68.0153 24.1764 67.2481L28.7688 52.9321C27.6256 54.4461 4.91546 54.5388 3.49414 52.9321Z" fill="#913232"/>
</svg>
